# xmcd
#
# Track frame offsets:
#  150
#  15646
#  33176
#  46285
#  62471
#  83484
#  105773
#  119015
#  134598
#  150671
#
# Disc length: 2315 seconds
#
# Revision: 0
# Processed by: cddbd v1.5.1PL0 Copyright (c) Steve Scherf et al.
# Submitted via: Collectorz.com Music Collector 6.9
#
DISCID=7009090a
DTITLE=Blues Element - Baby's Got The Blues
DYEAR=2004
DGENRE=Blues
TTITLE0=Baby's got the blues
TTITLE1=C'mon
TTITLE2=Not thinking of you
TTITLE3=It's not you
TTITLE4=Crazy man blues
TTITLE5=You have my love
TTITLE6=So much to learn
TTITLE7=Lucky in love
TTITLE8=Hockey strike blues
TTITLE9=There was a time
EXTD=
EXTT0=
EXTT1=
EXTT2=
EXTT3=
EXTT4=
EXTT5=
EXTT6=
EXTT7=
EXTT8=
EXTT9=
PLAYORDER=
